<svg width="480" height="680" xmlns="http://www.w3.org/2000/svg"><g transform="translate(120, 170) rotate(0, 50, 75)"><rect x="0" y="0" width="100" height="150" fill="#FFF" stroke="#000" /><text x="50" y="75" dominant-baseline="middle" text-anchor="middle" font-size="12">[mN游뿏]</text></g><g transform="translate(120, 170) rotate(90, 50, 75)"><rect x="0" y="0" width="100" height="150" fill="#FFF" stroke="#000" /><text x="50" y="75" dominant-baseline="middle" text-anchor="middle" font-size="12">[m3游꼿]</text></g><g transform="translate(120, 340) rotate(0, 50, 75)"><rect x="0" y="0" width="100" height="150" fill="#FFF" stroke="#000" /><text x="50" y="75" dominant-baseline="middle" text-anchor="middle" font-size="12">[m9游디勇끃</text></g><g transform="translate(0, 170) rotate(0, 50, 75)"><rect x="0" y="0" width="100" height="150" fill="#FFF" stroke="#000" /><text x="50" y="75" dominant-baseline="middle" text-anchor="middle" font-size="12">[m9游뿣]</text></g><g transform="translate(120, 0) rotate(0, 50, 75)"><rect x="0" y="0" width="100" height="150" fill="#FFF" stroke="#000" /><text x="50" y="75" dominant-baseline="middle" text-anchor="middle" font-size="12">[m7游디勇끃</text></g><g transform="translate(240, 170) rotate(0, 50, 75)"><rect x="0" y="0" width="100" height="150" fill="#FFF" stroke="#000" /><text x="50" y="75" dominant-baseline="middle" text-anchor="middle" font-size="12">[m4游디勇끃</text></g><g transform="translate(360, 510) rotate(0, 50, 75)"><rect x="0" y="0" width="100" height="150" fill="#FFF" stroke="#000" /><text x="50" y="75" dominant-baseline="middle" text-anchor="middle" font-size="12">[m8游디勇끃</text></g><g transform="translate(360, 340) rotate(0, 50, 75)"><rect x="0" y="0" width="100" height="150" fill="#FFF" stroke="#000" /><text x="50" y="75" dominant-baseline="middle" text-anchor="middle" font-size="12">[mP游뿏]</text></g><g transform="translate(360, 170) rotate(0, 50, 75)"><rect x="0" y="0" width="100" height="150" fill="#FFF" stroke="#000" /><text x="50" y="75" dominant-baseline="middle" text-anchor="middle" font-size="12">[m9游뿏]</text></g><g transform="translate(360, 0) rotate(0, 50, 75)"><rect x="0" y="0" width="100" height="150" fill="#FFF" stroke="#000" /><text x="50" y="75" dominant-baseline="middle" text-anchor="middle" font-size="12">[m5游뿣]</text></g></svg>