<?xml version="1.0" encoding="UTF-8" standalone="no"?>
<!DOCTYPE svg PUBLIC "-//W3C//DTD SVG 1.1//EN"
 "http://www.w3.org/Graphics/SVG/1.1/DTD/svg11.dtd">
<!-- Generated by graphviz version 2.43.0 (0)
 -->
<!-- Title: CelticCross Pages: 1 -->
<svg width="376pt" height="264pt"
 viewBox="0.00 0.00 376.00 264.00" xmlns="http://www.w3.org/2000/svg" xmlns:xlink="http://www.w3.org/1999/xlink">
<g id="graph0" class="graph" transform="scale(1 1) rotate(0) translate(4 260)">
<title>CelticCross</title>
<polygon fill="white" stroke="transparent" points="-4,4 -4,-260 372,-260 372,4 -4,4"/>
<!-- [m5🪙] -->
<g id="node1" class="node">
<title>[m5🪙]</title>
<polygon fill="lightcoral" stroke="black" points="5,-219.5 5,-255.5 74,-255.5 74,-219.5 5,-219.5"/>
<text text-anchor="middle" x="39.5" y="-233.8" font-family="Times,serif" font-size="14.00">[m5🪙]</text>
</g>
<!-- [M20🎺] -->
<g id="node2" class="node">
<title>[M20🎺]</title>
<polygon fill="lightcoral" stroke="black" points="0,-146.5 0,-182.5 79,-182.5 79,-146.5 0,-146.5"/>
<text text-anchor="middle" x="39.5" y="-160.8" font-family="Times,serif" font-size="14.00">[M20🎺]</text>
</g>
<!-- [m5🪙]&#45;&gt;[M20🎺] -->
<g id="edge1" class="edge">
<title>[m5🪙]&#45;&gt;[M20🎺]</title>
<path fill="none" stroke="black" d="M39.5,-219.31C39.5,-211.29 39.5,-201.55 39.5,-192.57"/>
<polygon fill="black" stroke="black" points="43,-192.53 39.5,-182.53 36,-192.53 43,-192.53"/>
</g>
<!-- [mA🪙] -->
<g id="node3" class="node">
<title>[mA🪙]</title>
<polygon fill="lightcoral" stroke="black" points="4.5,-73.5 4.5,-109.5 74.5,-109.5 74.5,-73.5 4.5,-73.5"/>
<text text-anchor="middle" x="39.5" y="-87.8" font-family="Times,serif" font-size="14.00">[mA🪙]</text>
</g>
<!-- [M20🎺]&#45;&gt;[mA🪙] -->
<g id="edge2" class="edge">
<title>[M20🎺]&#45;&gt;[mA🪙]</title>
<path fill="none" stroke="black" d="M39.5,-146.31C39.5,-138.29 39.5,-128.55 39.5,-119.57"/>
<polygon fill="black" stroke="black" points="43,-119.53 39.5,-109.53 36,-119.53 43,-119.53"/>
</g>
<!-- [m3🪄] -->
<g id="node4" class="node">
<title>[m3🪄]</title>
<polygon fill="lightcoral" stroke="black" points="5,-0.5 5,-36.5 74,-36.5 74,-0.5 5,-0.5"/>
<text text-anchor="middle" x="39.5" y="-14.8" font-family="Times,serif" font-size="14.00">[m3🪄]</text>
</g>
<!-- [mA🪙]&#45;&gt;[m3🪄] -->
<g id="edge3" class="edge">
<title>[mA🪙]&#45;&gt;[m3🪄]</title>
<path fill="none" stroke="black" d="M39.5,-73.31C39.5,-65.29 39.5,-55.55 39.5,-46.57"/>
<polygon fill="black" stroke="black" points="43,-46.53 39.5,-36.53 36,-46.53 43,-46.53"/>
</g>
<!-- [m9🍵] -->
<g id="node5" class="node">
<title>[m9🍵]</title>
<polygon fill="lightcoral" stroke="black" points="136,-219.5 136,-255.5 205,-255.5 205,-219.5 136,-219.5"/>
<text text-anchor="middle" x="170.5" y="-233.8" font-family="Times,serif" font-size="14.00">[m9🍵]</text>
</g>
<!-- [mP🪙] -->
<g id="node6" class="node">
<title>[mP🪙]</title>
<polygon fill="lightcoral" stroke="black" points="179.5,-146.5 179.5,-182.5 249.5,-182.5 249.5,-146.5 179.5,-146.5"/>
<text text-anchor="middle" x="214.5" y="-160.8" font-family="Times,serif" font-size="14.00">[mP🪙]</text>
</g>
<!-- [m9🍵]&#45;&gt;[mP🪙] -->
<g id="edge4" class="edge">
<title>[m9🍵]&#45;&gt;[mP🪙]</title>
<path fill="none" stroke="black" d="M181.15,-219.31C186.39,-210.85 192.82,-200.48 198.63,-191.11"/>
<polygon fill="black" stroke="black" points="201.65,-192.87 203.95,-182.53 195.7,-189.19 201.65,-192.87"/>
</g>
<!-- [m8🍵] -->
<g id="node8" class="node">
<title>[m8🍵]</title>
<polygon fill="lightcoral" stroke="black" points="93,-73.5 93,-109.5 162,-109.5 162,-73.5 93,-73.5"/>
<text text-anchor="middle" x="127.5" y="-87.8" font-family="Times,serif" font-size="14.00">[m8🍵]</text>
</g>
<!-- [mP🪙]&#45;&gt;[m8🍵] -->
<g id="edge6" class="edge">
<title>[mP🪙]&#45;&gt;[m8🍵]</title>
<path fill="none" stroke="black" d="M193.44,-146.31C182.33,-137.24 168.52,-125.98 156.42,-116.1"/>
<polygon fill="black" stroke="black" points="158.33,-113.14 148.37,-109.53 153.9,-118.56 158.33,-113.14"/>
</g>
<!-- [m6🍵] -->
<g id="node9" class="node">
<title>[m6🍵]</title>
<polygon fill="lightcoral" stroke="black" points="180,-73.5 180,-109.5 249,-109.5 249,-73.5 180,-73.5"/>
<text text-anchor="middle" x="214.5" y="-87.8" font-family="Times,serif" font-size="14.00">[m6🍵]</text>
</g>
<!-- [mP🪙]&#45;&gt;[m6🍵] -->
<g id="edge7" class="edge">
<title>[mP🪙]&#45;&gt;[m6🍵]</title>
<path fill="none" stroke="black" d="M214.5,-146.31C214.5,-138.29 214.5,-128.55 214.5,-119.57"/>
<polygon fill="black" stroke="black" points="218,-119.53 214.5,-109.53 211,-119.53 218,-119.53"/>
</g>
<!-- [M6👩‍❤️‍👨] -->
<g id="node10" class="node">
<title>[M6👩‍❤️‍👨]</title>
<polygon fill="lightcoral" stroke="black" points="267,-73.5 267,-109.5 368,-109.5 368,-73.5 267,-73.5"/>
<text text-anchor="middle" x="317.5" y="-87.8" font-family="Times,serif" font-size="14.00">[M6👩‍❤️‍👨]</text>
</g>
<!-- [mP🪙]&#45;&gt;[M6👩‍❤️‍👨] -->
<g id="edge8" class="edge">
<title>[mP🪙]&#45;&gt;[M6👩‍❤️‍👨]</title>
<path fill="none" stroke="black" d="M239.17,-146.49C252.7,-137.17 269.66,-125.47 284.34,-115.36"/>
<polygon fill="black" stroke="black" points="286.43,-118.17 292.67,-109.61 282.45,-112.41 286.43,-118.17"/>
</g>
<!-- [m4🍵] -->
<g id="node7" class="node">
<title>[m4🍵]</title>
<polygon fill="lightcoral" stroke="black" points="223,-219.5 223,-255.5 292,-255.5 292,-219.5 223,-219.5"/>
<text text-anchor="middle" x="257.5" y="-233.8" font-family="Times,serif" font-size="14.00">[m4🍵]</text>
</g>
<!-- [m4🍵]&#45;&gt;[mP🪙] -->
<g id="edge5" class="edge">
<title>[m4🍵]&#45;&gt;[mP🪙]</title>
<path fill="none" stroke="black" d="M247.09,-219.31C241.97,-210.85 235.69,-200.48 230.01,-191.11"/>
<polygon fill="black" stroke="black" points="232.99,-189.27 224.81,-182.53 227,-192.9 232.99,-189.27"/>
</g>
</g>
</svg>
