<?xml version="1.0" encoding="UTF-8" standalone="no"?>
<!DOCTYPE svg PUBLIC "-//W3C//DTD SVG 1.1//EN"
 "http://www.w3.org/Graphics/SVG/1.1/DTD/svg11.dtd">
<!-- Generated by graphviz version 2.43.0 (0)
 -->
<!-- Title: CelticCross Pages: 1 -->
<svg width="799pt" height="118pt"
 viewBox="0.00 0.00 799.00 118.00" xmlns="http://www.w3.org/2000/svg" xmlns:xlink="http://www.w3.org/1999/xlink">
<g id="graph0" class="graph" transform="scale(1 1) rotate(0) translate(4 114)">
<title>CelticCross</title>
<polygon fill="white" stroke="transparent" points="-4,4 -4,-114 795,-114 795,4 -4,4"/>
<!-- [mQ游디勇끃 -->
<g id="node1" class="node">
<title>[mQ游디勇끃</title>
<polygon fill="lightcoral" stroke="black" points="368.5,-73.5 368.5,-109.5 439.5,-109.5 439.5,-73.5 368.5,-73.5"/>
<text text-anchor="middle" x="404" y="-87.8" font-family="Times,serif" font-size="14.00">[mQ游디勇끃</text>
</g>
<!-- [m10游꼿] -->
<g id="node2" class="node">
<title>[m10游꼿]</title>
<polygon fill="lightcoral" stroke="black" points="0,-0.5 0,-36.5 78,-36.5 78,-0.5 0,-0.5"/>
<text text-anchor="middle" x="39" y="-14.8" font-family="Times,serif" font-size="14.00">[m10游꼿]</text>
</g>
<!-- [mQ游디勇끃&#45;&gt;[m10游꼿] -->
<g id="edge1" class="edge">
<title>[mQ游디勇끃&#45;&gt;[m10游꼿]</title>
<path fill="none" stroke="black" d="M368.37,-86.64C311.02,-79.96 194.69,-64.5 88.06,-37.03"/>
<polygon fill="black" stroke="black" points="88.67,-33.57 78.11,-34.42 86.89,-40.34 88.67,-33.57"/>
</g>
<!-- [mK游디勇끃 -->
<g id="node3" class="node">
<title>[mK游디勇끃</title>
<polygon fill="lightcoral" stroke="black" points="96.5,-0.5 96.5,-36.5 167.5,-36.5 167.5,-0.5 96.5,-0.5"/>
<text text-anchor="middle" x="132" y="-14.8" font-family="Times,serif" font-size="14.00">[mK游디勇끃</text>
</g>
<!-- [mQ游디勇끃&#45;&gt;[mK游디勇끃 -->
<g id="edge2" class="edge">
<title>[mQ游디勇끃&#45;&gt;[mK游디勇끃</title>
<path fill="none" stroke="black" d="M368.2,-83.67C325.05,-75.09 250.28,-59.11 177.49,-36.93"/>
<polygon fill="black" stroke="black" points="178.29,-33.51 167.7,-33.9 176.22,-40.2 178.29,-33.51"/>
</g>
<!-- [m10游디勇끃 -->
<g id="node4" class="node">
<title>[m10游디勇끃</title>
<polygon fill="lightcoral" stroke="black" points="186,-0.5 186,-36.5 264,-36.5 264,-0.5 186,-0.5"/>
<text text-anchor="middle" x="225" y="-14.8" font-family="Times,serif" font-size="14.00">[m10游디勇끃</text>
</g>
<!-- [mQ游디勇끃&#45;&gt;[m10游디勇끃 -->
<g id="edge3" class="edge">
<title>[mQ游디勇끃&#45;&gt;[m10游디勇끃</title>
<path fill="none" stroke="black" d="M368.21,-76.3C341.05,-65.53 303.42,-50.61 273.55,-38.76"/>
<polygon fill="black" stroke="black" points="274.73,-35.46 264.15,-35.03 272.15,-41.97 274.73,-35.46"/>
</g>
<!-- [m3游꼿] -->
<g id="node5" class="node">
<title>[m3游꼿]</title>
<polygon fill="lightcoral" stroke="black" points="282.5,-0.5 282.5,-36.5 351.5,-36.5 351.5,-0.5 282.5,-0.5"/>
<text text-anchor="middle" x="317" y="-14.8" font-family="Times,serif" font-size="14.00">[m3游꼿]</text>
</g>
<!-- [mQ游디勇끃&#45;&gt;[m3游꼿] -->
<g id="edge4" class="edge">
<title>[mQ游디勇끃&#45;&gt;[m3游꼿]</title>
<path fill="none" stroke="black" d="M382.94,-73.31C371.83,-64.24 358.02,-52.98 345.92,-43.1"/>
<polygon fill="black" stroke="black" points="347.83,-40.14 337.87,-36.53 343.4,-45.56 347.83,-40.14"/>
</g>
<!-- [m6游뿏] -->
<g id="node6" class="node">
<title>[m6游뿏]</title>
<polygon fill="lightcoral" stroke="black" points="369.5,-0.5 369.5,-36.5 438.5,-36.5 438.5,-0.5 369.5,-0.5"/>
<text text-anchor="middle" x="404" y="-14.8" font-family="Times,serif" font-size="14.00">[m6游뿏]</text>
</g>
<!-- [mQ游디勇끃&#45;&gt;[m6游뿏] -->
<g id="edge5" class="edge">
<title>[mQ游디勇끃&#45;&gt;[m6游뿏]</title>
<path fill="none" stroke="black" d="M404,-73.31C404,-65.29 404,-55.55 404,-46.57"/>
<polygon fill="black" stroke="black" points="407.5,-46.53 404,-36.53 400.5,-46.53 407.5,-46.53"/>
</g>
<!-- [mQ游뿣] -->
<g id="node7" class="node">
<title>[mQ游뿣]</title>
<polygon fill="lightcoral" stroke="black" points="456.5,-0.5 456.5,-36.5 527.5,-36.5 527.5,-0.5 456.5,-0.5"/>
<text text-anchor="middle" x="492" y="-14.8" font-family="Times,serif" font-size="14.00">[mQ游뿣]</text>
</g>
<!-- [mQ游디勇끃&#45;&gt;[mQ游뿣] -->
<g id="edge6" class="edge">
<title>[mQ游디勇끃&#45;&gt;[mQ游뿣]</title>
<path fill="none" stroke="black" d="M425.3,-73.31C436.65,-64.16 450.78,-52.76 463.1,-42.82"/>
<polygon fill="black" stroke="black" points="465.31,-45.53 470.89,-36.53 460.91,-40.08 465.31,-45.53"/>
</g>
<!-- [m2游꼿] -->
<g id="node8" class="node">
<title>[m2游꼿]</title>
<polygon fill="lightcoral" stroke="black" points="545.5,-0.5 545.5,-36.5 614.5,-36.5 614.5,-0.5 545.5,-0.5"/>
<text text-anchor="middle" x="580" y="-14.8" font-family="Times,serif" font-size="14.00">[m2游꼿]</text>
</g>
<!-- [mQ游디勇끃&#45;&gt;[m2游꼿] -->
<g id="edge7" class="edge">
<title>[mQ游디勇끃&#45;&gt;[m2游꼿]</title>
<path fill="none" stroke="black" d="M439.58,-76.23C464.28,-66.32 498.19,-52.69 535.67,-37.53"/>
<polygon fill="black" stroke="black" points="537.31,-40.64 545.27,-33.65 534.69,-34.15 537.31,-40.64"/>
</g>
<!-- [mP游뿏] -->
<g id="node9" class="node">
<title>[mP游뿏]</title>
<polygon fill="lightcoral" stroke="black" points="633,-0.5 633,-36.5 703,-36.5 703,-0.5 633,-0.5"/>
<text text-anchor="middle" x="668" y="-14.8" font-family="Times,serif" font-size="14.00">[mP游뿏]</text>
</g>
<!-- [mQ游디勇끃&#45;&gt;[mP游뿏] -->
<g id="edge8" class="edge">
<title>[mQ游디勇끃&#45;&gt;[mP游뿏]</title>
<path fill="none" stroke="black" d="M439.86,-83.39C481.79,-74.73 553.35,-58.86 622.83,-37.17"/>
<polygon fill="black" stroke="black" points="624.14,-40.42 632.61,-34.07 622.02,-33.75 624.14,-40.42"/>
</g>
<!-- [mA游뿏] -->
<g id="node10" class="node">
<title>[mA游뿏]</title>
<polygon fill="lightcoral" stroke="black" points="721,-0.5 721,-36.5 791,-36.5 791,-0.5 721,-0.5"/>
<text text-anchor="middle" x="756" y="-14.8" font-family="Times,serif" font-size="14.00">[mA游뿏]</text>
</g>
<!-- [mQ游디勇끃&#45;&gt;[mA游뿏] -->
<g id="edge9" class="edge">
<title>[mQ游디勇끃&#45;&gt;[mA游뿏]</title>
<path fill="none" stroke="black" d="M439.64,-86.73C495.75,-80.29 608.07,-65.27 710.77,-37.05"/>
<polygon fill="black" stroke="black" points="711.99,-40.34 720.68,-34.28 710.1,-33.6 711.99,-40.34"/>
</g>
</g>
</svg>
