<svg width="680" height="1130" xmlns="http://www.w3.org/2000/svg"><g transform="translate(170, 270) rotate(0, 75, 125) scale(0.5, 0.5)">
    <svg width="300" height="500" viewBox="0 0 300 500" xmlns="http://www.w3.org/2000/svg">
      <g transform="rotate(180, 150, 250)">
        <rect width="100%" height="100%" fill="#f5b08c" />
        <text x="25%" y="25%" dominant-baseline="middle" text-anchor="middle" font-size="40">🪄</text><text x="75%" y="25%" dominant-baseline="middle" text-anchor="middle" font-size="40">🪄</text><text x="50%" y="47.5%" dominant-baseline="middle" text-anchor="middle" font-size="40">🪄</text><text x="25%" y="70%" dominant-baseline="middle" text-anchor="middle" font-size="40">🪄</text><text x="75%" y="70%" dominant-baseline="middle" text-anchor="middle" font-size="40">🪄</text>


      </g>
    </svg>
  </g><g transform="translate(170, 270) rotate(90, 75, 125) scale(0.5, 0.5)">
    <svg width="300" height="500" viewBox="0 0 300 500" xmlns="http://www.w3.org/2000/svg">
      <g >
        <rect width="100%" height="100%" fill="#e6e6fa" />

                <text x="50%" y="40%" dominant-baseline="middle" text-anchor="middle" font-size="60">🤴🏻</text>
                <text x="50%" y="60%" dominant-baseline="middle" text-anchor="middle" font-size="60">🗡️</text>



      </g>
    </svg>
  </g><g transform="translate(170, 540) rotate(0, 75, 125) scale(0.5, 0.5)">
    <svg width="300" height="500" viewBox="0 0 300 500" xmlns="http://www.w3.org/2000/svg">
      <g >
        <rect width="100%" height="100%" fill="#d6a885" />

                <text x="50%" y="40%" dominant-baseline="middle" text-anchor="middle" font-size="60">👸🏾</text>
                <text x="50%" y="60%" dominant-baseline="middle" text-anchor="middle" font-size="60">🪙</text>



      </g>
    </svg>
  </g><g transform="translate(0, 270) rotate(0, 75, 125) scale(0.5, 0.5)">
    <svg width="300" height="500" viewBox="0 0 300 500" xmlns="http://www.w3.org/2000/svg">
      <g transform="rotate(180, 150, 250)">
        <rect width="100%" height="100%" fill="#e6e6fa" />
        <text x="25%" y="25%" dominant-baseline="middle" text-anchor="middle" font-size="40">🗡️</text><text x="75%" y="25%" dominant-baseline="middle" text-anchor="middle" font-size="40">🗡️</text><text x="50%" y="47.5%" dominant-baseline="middle" text-anchor="middle" font-size="40">🗡️</text><text x="25%" y="70%" dominant-baseline="middle" text-anchor="middle" font-size="40">🗡️</text><text x="75%" y="70%" dominant-baseline="middle" text-anchor="middle" font-size="40">🗡️</text>


      </g>
    </svg>
  </g><g transform="translate(170, 0) rotate(0, 75, 125) scale(0.5, 0.5)">
    <svg width="300" height="500" viewBox="0 0 300 500" xmlns="http://www.w3.org/2000/svg">
      <g transform="rotate(180, 150, 250)">
        <rect width="100%" height="100%" fill="#f5b08c" />
        <text x="25%" y="25%" dominant-baseline="middle" text-anchor="middle" font-size="40">🪄</text><text x="75%" y="25%" dominant-baseline="middle" text-anchor="middle" font-size="40">🪄</text><text x="25%" y="70%" dominant-baseline="middle" text-anchor="middle" font-size="40">🪄</text><text x="75%" y="70%" dominant-baseline="middle" text-anchor="middle" font-size="40">🪄</text>


      </g>
    </svg>
  </g><g transform="translate(340, 270) rotate(0, 75, 125) scale(0.5, 0.5)">
    <svg width="300" height="500" viewBox="0 0 300 500" xmlns="http://www.w3.org/2000/svg">
      <g >
        <rect width="100%" height="100%" fill="#a0d2eb" />

                <text x="50%" y="40%" dominant-baseline="middle" text-anchor="middle" font-size="60">♞</text>
                <text x="50%" y="60%" dominant-baseline="middle" text-anchor="middle" font-size="60">🍵</text>



      </g>
    </svg>
  </g><g transform="translate(510, 810) rotate(0, 75, 125) scale(0.5, 0.5)">
    <svg width="300" height="500" viewBox="0 0 300 500" xmlns="http://www.w3.org/2000/svg">
      <g >
        <rect width="100%" height="100%" fill="#a0d2eb" />
        <text x="25%" y="20%" dominant-baseline="middle" text-anchor="middle" font-size="40">🍵</text><text x="50%" y="20%" dominant-baseline="middle" text-anchor="middle" font-size="40">🍵</text><text x="75%" y="20%" dominant-baseline="middle" text-anchor="middle" font-size="40">🍵</text><text x="25%" y="47.5%" dominant-baseline="middle" text-anchor="middle" font-size="40">🍵</text><text x="50%" y="47.5%" dominant-baseline="middle" text-anchor="middle" font-size="40">🍵</text><text x="75%" y="47.5%" dominant-baseline="middle" text-anchor="middle" font-size="40">🍵</text><text x="25%" y="75%" dominant-baseline="middle" text-anchor="middle" font-size="40">🍵</text><text x="50%" y="75%" dominant-baseline="middle" text-anchor="middle" font-size="40">🍵</text><text x="75%" y="75%" dominant-baseline="middle" text-anchor="middle" font-size="40">🍵</text>


      </g>
    </svg>
  </g><g transform="translate(510, 540) rotate(0, 75, 125) scale(0.5, 0.5)">
    <svg width="300" height="500" viewBox="0 0 300 500" xmlns="http://www.w3.org/2000/svg">
      <g transform="rotate(180, 150, 250)">
        <rect width="100%" height="100%" fill="#f5b08c" />
        <text x="25%" y="20%" dominant-baseline="middle" text-anchor="middle" font-size="40">🪄</text><text x="50%" y="20%" dominant-baseline="middle" text-anchor="middle" font-size="40">🪄</text><text x="75%" y="20%" dominant-baseline="middle" text-anchor="middle" font-size="40">🪄</text><text x="25%" y="47.5%" dominant-baseline="middle" text-anchor="middle" font-size="40">🪄</text><text x="50%" y="47.5%" dominant-baseline="middle" text-anchor="middle" font-size="40">🪄</text><text x="75%" y="47.5%" dominant-baseline="middle" text-anchor="middle" font-size="40">🪄</text><text x="25%" y="75%" dominant-baseline="middle" text-anchor="middle" font-size="40">🪄</text><text x="50%" y="75%" dominant-baseline="middle" text-anchor="middle" font-size="40">🪄</text><text x="75%" y="75%" dominant-baseline="middle" text-anchor="middle" font-size="40">🪄</text>


      </g>
    </svg>
  </g><g transform="translate(510, 270) rotate(0, 75, 125) scale(0.5, 0.5)">
    <svg width="300" height="500" viewBox="0 0 300 500" xmlns="http://www.w3.org/2000/svg">
      <g >
        <rect width="100%" height="100%" fill="#d6a885" />
        <text x="50%" y="25%" dominant-baseline="middle" text-anchor="middle" font-size="40">🪙</text><text x="50%" y="70%" dominant-baseline="middle" text-anchor="middle" font-size="40">🪙</text>


      </g>
    </svg>
  </g><g transform="translate(510, 0) rotate(0, 75, 125) scale(0.5, 0.5)">
    <svg width="300" height="500" viewBox="0 0 300 500" xmlns="http://www.w3.org/2000/svg">
      <g >
        <rect width="100%" height="100%" fill="#e6e6fa" />
        <text x="25%" y="25%" dominant-baseline="middle" text-anchor="middle" font-size="40">🗡️</text><text x="75%" y="25%" dominant-baseline="middle" text-anchor="middle" font-size="40">🗡️</text><text x="25%" y="47.5%" dominant-baseline="middle" text-anchor="middle" font-size="40">🗡️</text><text x="75%" y="47.5%" dominant-baseline="middle" text-anchor="middle" font-size="40">🗡️</text><text x="25%" y="70%" dominant-baseline="middle" text-anchor="middle" font-size="40">🗡️</text><text x="75%" y="70%" dominant-baseline="middle" text-anchor="middle" font-size="40">🗡️</text>


      </g>
    </svg>
  </g>
        <text x="340" y="1105" dominant-baseline="middle" text-anchor="middle" font-size="16" fill="black">
          A deep dive into a complex situation.
        </text>
      </svg>