<?xml version="1.0" encoding="UTF-8" standalone="no"?>
<!DOCTYPE svg PUBLIC "-//W3C//DTD SVG 1.1//EN"
 "http://www.w3.org/Graphics/SVG/1.1/DTD/svg11.dtd">
<!-- Generated by graphviz version 2.43.0 (0)
 -->
<!-- Title: CrossSpread Pages: 1 -->
<svg width="292pt" height="188pt"
 viewBox="0.00 0.00 291.50 188.00" xmlns="http://www.w3.org/2000/svg" xmlns:xlink="http://www.w3.org/1999/xlink">
<g id="graph0" class="graph" transform="scale(1 1) rotate(0) translate(4 184)">
<title>CrossSpread</title>
<polygon fill="white" stroke="transparent" points="-4,4 -4,-184 287.5,-184 287.5,4 -4,4"/>
<!-- [M6👩‍❤️‍👨] -->
<g id="node1" class="node">
<title>[M6👩‍❤️‍👨]</title>
<polygon fill="lightgreen" stroke="black" points="101,-108 0,-108 0,-72 101,-72 101,-108"/>
<text text-anchor="middle" x="50.5" y="-86.3" font-family="Times,serif" font-size="14.00">[M6👩‍❤️‍👨]</text>
</g>
<!-- [mN🗡️] -->
<g id="node2" class="node">
<title>[mN🗡️]</title>
<polygon fill="lightgreen" stroke="black" points="191.5,-108 119.5,-108 119.5,-72 191.5,-72 191.5,-108"/>
<text text-anchor="middle" x="155.5" y="-86.3" font-family="Times,serif" font-size="14.00">[mN🗡️]</text>
</g>
<!-- [M6👩‍❤️‍👨]&#45;&gt;[mN🗡️] -->
<!-- [M12🙃] -->
<g id="node3" class="node">
<title>[M12🙃]</title>
<polygon fill="lightgreen" stroke="black" points="283.5,-108 209.5,-108 209.5,-72 283.5,-72 283.5,-108"/>
<text text-anchor="middle" x="246.5" y="-86.3" font-family="Times,serif" font-size="14.00">[M12🙃]</text>
</g>
<!-- [mN🗡️]&#45;&gt;[M12🙃] -->
<!-- [m8🍵] -->
<g id="node5" class="node">
<title>[m8🍵]</title>
<polygon fill="lightgreen" stroke="black" points="190,-36 121,-36 121,0 190,0 190,-36"/>
<text text-anchor="middle" x="155.5" y="-14.3" font-family="Times,serif" font-size="14.00">[m8🍵]</text>
</g>
<!-- [mN🗡️]&#45;&gt;[m8🍵] -->
<!-- [M1🧙‍♂️] -->
<g id="node4" class="node">
<title>[M1🧙‍♂️]</title>
<polygon fill="lightgreen" stroke="black" points="197,-180 114,-180 114,-144 197,-144 197,-180"/>
<text text-anchor="middle" x="155.5" y="-158.3" font-family="Times,serif" font-size="14.00">[M1🧙‍♂️]</text>
</g>
<!-- [M1🧙‍♂️]&#45;&gt;[mN🗡️] -->
</g>
</svg>
