<?xml version="1.0" encoding="UTF-8" standalone="no"?>
<!DOCTYPE svg PUBLIC "-//W3C//DTD SVG 1.1//EN"
 "http://www.w3.org/Graphics/SVG/1.1/DTD/svg11.dtd">
<!-- Generated by graphviz version 2.43.0 (0)
 -->
<!-- Title: CrossSpread Pages: 1 -->
<svg width="251pt" height="188pt"
 viewBox="0.00 0.00 251.00 188.00" xmlns="http://www.w3.org/2000/svg" xmlns:xlink="http://www.w3.org/1999/xlink">
<g id="graph0" class="graph" transform="scale(1 1) rotate(0) translate(4 184)">
<title>CrossSpread</title>
<polygon fill="white" stroke="transparent" points="-4,4 -4,-184 247,-184 247,4 -4,4"/>
<!-- [M21游깵] -->
<g id="node1" class="node">
<title>[M21游깵]</title>
<polygon fill="lightgreen" stroke="black" points="161,-180 82,-180 82,-144 161,-144 161,-180"/>
<text text-anchor="middle" x="121.5" y="-158.3" font-family="Times,serif" font-size="14.00">[M21游깵]</text>
</g>
<!-- [m5游디勇끃 -->
<g id="node2" class="node">
<title>[m5游디勇끃</title>
<polygon fill="lightgreen" stroke="black" points="156,-108 87,-108 87,-72 156,-72 156,-108"/>
<text text-anchor="middle" x="121.5" y="-86.3" font-family="Times,serif" font-size="14.00">[m5游디勇끃</text>
</g>
<!-- [M21游깵]&#45;&gt;[m5游디勇끃 -->
<g id="edge1" class="edge">
<title>[M21游깵]&#45;&gt;[m5游디勇끃</title>
<path fill="none" stroke="black" d="M121.5,-143.7C121.5,-135.98 121.5,-126.71 121.5,-118.11"/>
<polygon fill="black" stroke="black" points="125,-118.1 121.5,-108.1 118,-118.1 125,-118.1"/>
</g>
<!-- [m9游뿏] -->
<g id="node3" class="node">
<title>[m9游뿏]</title>
<polygon fill="lightgreen" stroke="black" points="69,-36 0,-36 0,0 69,0 69,-36"/>
<text text-anchor="middle" x="34.5" y="-14.3" font-family="Times,serif" font-size="14.00">[m9游뿏]</text>
</g>
<!-- [m5游디勇끃&#45;&gt;[m9游뿏] -->
<g id="edge2" class="edge">
<title>[m5游디勇끃&#45;&gt;[m9游뿏]</title>
<path fill="none" stroke="black" d="M99.99,-71.7C89.04,-62.88 75.55,-52.03 63.68,-42.47"/>
<polygon fill="black" stroke="black" points="65.74,-39.65 55.76,-36.1 61.36,-45.1 65.74,-39.65"/>
</g>
<!-- [m7游디勇끃 -->
<g id="node4" class="node">
<title>[m7游디勇끃</title>
<polygon fill="lightgreen" stroke="black" points="156,-36 87,-36 87,0 156,0 156,-36"/>
<text text-anchor="middle" x="121.5" y="-14.3" font-family="Times,serif" font-size="14.00">[m7游디勇끃</text>
</g>
<!-- [m5游디勇끃&#45;&gt;[m7游디勇끃 -->
<g id="edge3" class="edge">
<title>[m5游디勇끃&#45;&gt;[m7游디勇끃</title>
<path fill="none" stroke="black" d="M121.5,-71.7C121.5,-63.98 121.5,-54.71 121.5,-46.11"/>
<polygon fill="black" stroke="black" points="125,-46.1 121.5,-36.1 118,-46.1 125,-46.1"/>
</g>
<!-- [m8游뿏] -->
<g id="node5" class="node">
<title>[m8游뿏]</title>
<polygon fill="lightgreen" stroke="black" points="243,-36 174,-36 174,0 243,0 243,-36"/>
<text text-anchor="middle" x="208.5" y="-14.3" font-family="Times,serif" font-size="14.00">[m8游뿏]</text>
</g>
<!-- [m5游디勇끃&#45;&gt;[m8游뿏] -->
<g id="edge4" class="edge">
<title>[m5游디勇끃&#45;&gt;[m8游뿏]</title>
<path fill="none" stroke="black" d="M143.01,-71.7C153.96,-62.88 167.45,-52.03 179.32,-42.47"/>
<polygon fill="black" stroke="black" points="181.64,-45.1 187.24,-36.1 177.26,-39.65 181.64,-45.1"/>
</g>
</g>
</svg>
