<?xml version="1.0" encoding="UTF-8" standalone="no"?>
<!DOCTYPE svg PUBLIC "-//W3C//DTD SVG 1.1//EN"
 "http://www.w3.org/Graphics/SVG/1.1/DTD/svg11.dtd">
<!-- Generated by graphviz version 2.43.0 (0)
 -->
<!-- Title: ThreeCardSpread Pages: 1 -->
<svg width="289pt" height="44pt"
 viewBox="0.00 0.00 289.00 44.00" xmlns="http://www.w3.org/2000/svg" xmlns:xlink="http://www.w3.org/1999/xlink">
<g id="graph0" class="graph" transform="scale(1 1) rotate(0) translate(4 40)">
<title>ThreeCardSpread</title>
<polygon fill="white" stroke="transparent" points="-4,4 -4,-40 285,-40 285,4 -4,4"/>
<!-- [M2游댩] -->
<g id="node1" class="node">
<title>[M2游댩]</title>
<polygon fill="lightblue" stroke="black" points="70,-36 0,-36 0,0 70,0 70,-36"/>
<text text-anchor="middle" x="35" y="-14.3" font-family="Times,serif" font-size="14.00">[M2游댩]</text>
</g>
<!-- [mA游디勇끃 -->
<g id="node2" class="node">
<title>[mA游디勇끃</title>
<polygon fill="lightblue" stroke="black" points="176,-36 106,-36 106,0 176,0 176,-36"/>
<text text-anchor="middle" x="141" y="-14.3" font-family="Times,serif" font-size="14.00">[mA游디勇끃</text>
</g>
<!-- [M2游댩]&#45;&gt;[mA游디勇끃 -->
<g id="edge1" class="edge">
<title>[M2游댩]&#45;&gt;[mA游디勇끃</title>
<path fill="none" stroke="black" d="M70.05,-18C78.22,-18 87.07,-18 95.63,-18"/>
<polygon fill="black" stroke="black" points="95.87,-21.5 105.87,-18 95.87,-14.5 95.87,-21.5"/>
</g>
<!-- [m3游디勇끃 -->
<g id="node3" class="node">
<title>[m3游디勇끃</title>
<polygon fill="lightblue" stroke="black" points="281,-36 212,-36 212,0 281,0 281,-36"/>
<text text-anchor="middle" x="246.5" y="-14.3" font-family="Times,serif" font-size="14.00">[m3游디勇끃</text>
</g>
<!-- [mA游디勇끃&#45;&gt;[m3游디勇끃 -->
<g id="edge2" class="edge">
<title>[mA游디勇끃&#45;&gt;[m3游디勇끃</title>
<path fill="none" stroke="black" d="M176.18,-18C184.3,-18 193.07,-18 201.56,-18"/>
<polygon fill="black" stroke="black" points="201.71,-21.5 211.71,-18 201.71,-14.5 201.71,-21.5"/>
</g>
</g>
</svg>
