<svg width="460" height="246.66666666666666" xmlns="http://www.w3.org/2000/svg" viewBox="0 0 460 246.66666666666666"><g transform="translate(40, 40) scale(0.3333333333333333) rotate(0, 150, 250)"><g transform="rotate(180, 150, 250)">
    <rect width="100%" height="100%" fill="#f5b08c" />
    <text x="25%" y="20%" dominant-baseline="middle" text-anchor="middle" font-size="40">🪄</text><text x="75%" y="20%" dominant-baseline="middle" text-anchor="middle" font-size="40">🪄</text><text x="25%" y="36.66666666666667%" dominant-baseline="middle" text-anchor="middle" font-size="40">🪄</text><text x="75%" y="36.66666666666667%" dominant-baseline="middle" text-anchor="middle" font-size="40">🪄</text><text x="25%" y="58.33333333333333%" dominant-baseline="middle" text-anchor="middle" font-size="40">🪄</text><text x="75%" y="58.33333333333333%" dominant-baseline="middle" text-anchor="middle" font-size="40">🪄</text><text x="25%" y="75%" dominant-baseline="middle" text-anchor="middle" font-size="40">🪄</text><text x="75%" y="75%" dominant-baseline="middle" text-anchor="middle" font-size="40">🪄</text>
    <text x="50%" y="10%" dominant-baseline="middle" text-anchor="middle" font-size="20" font-weight="bold">VIII</text>

    <rect x="10%" y="80%" width="80%" height="15%" fill="white" stroke="black" stroke-width="2" />
    <text x="50%" y="88%" dominant-baseline="middle" text-anchor="middle" font-size="20" font-weight="bold" fill="black">Eight of Wands</text>

  </g></g><g transform="translate(180, 40) scale(0.3333333333333333) rotate(0, 150, 250)"><g transform="rotate(180, 150, 250)">
    <rect width="100%" height="100%" fill="#e6e6fa" />
    <text x="25%" y="20%" dominant-baseline="middle" text-anchor="middle" font-size="40">🗡️</text><text x="50%" y="20%" dominant-baseline="middle" text-anchor="middle" font-size="40">🗡️</text><text x="75%" y="20%" dominant-baseline="middle" text-anchor="middle" font-size="40">🗡️</text><text x="25%" y="47.5%" dominant-baseline="middle" text-anchor="middle" font-size="40">🗡️</text><text x="50%" y="47.5%" dominant-baseline="middle" text-anchor="middle" font-size="40">🗡️</text><text x="75%" y="47.5%" dominant-baseline="middle" text-anchor="middle" font-size="40">🗡️</text><text x="25%" y="75%" dominant-baseline="middle" text-anchor="middle" font-size="40">🗡️</text><text x="50%" y="75%" dominant-baseline="middle" text-anchor="middle" font-size="40">🗡️</text><text x="75%" y="75%" dominant-baseline="middle" text-anchor="middle" font-size="40">🗡️</text>
    <text x="50%" y="10%" dominant-baseline="middle" text-anchor="middle" font-size="20" font-weight="bold">IX</text>

    <rect x="10%" y="80%" width="80%" height="15%" fill="white" stroke="black" stroke-width="2" />
    <text x="50%" y="88%" dominant-baseline="middle" text-anchor="middle" font-size="20" font-weight="bold" fill="black">Nine of Swords</text>

  </g></g><g transform="translate(320, 40) scale(0.3333333333333333) rotate(0, 150, 250)"><g transform="rotate(180, 150, 250)">
    <rect width="100%" height="100%" fill="#e6e6fa" />
    <text x="25%" y="20%" dominant-baseline="middle" text-anchor="middle" font-size="40">🗡️</text><text x="75%" y="20%" dominant-baseline="middle" text-anchor="middle" font-size="40">🗡️</text><text x="25%" y="36.66666666666667%" dominant-baseline="middle" text-anchor="middle" font-size="40">🗡️</text><text x="75%" y="36.66666666666667%" dominant-baseline="middle" text-anchor="middle" font-size="40">🗡️</text><text x="25%" y="58.33333333333333%" dominant-baseline="middle" text-anchor="middle" font-size="40">🗡️</text><text x="75%" y="58.33333333333333%" dominant-baseline="middle" text-anchor="middle" font-size="40">🗡️</text><text x="25%" y="75%" dominant-baseline="middle" text-anchor="middle" font-size="40">🗡️</text><text x="75%" y="75%" dominant-baseline="middle" text-anchor="middle" font-size="40">🗡️</text>
    <text x="50%" y="10%" dominant-baseline="middle" text-anchor="middle" font-size="20" font-weight="bold">VIII</text>

    <rect x="10%" y="80%" width="80%" height="15%" fill="white" stroke="black" stroke-width="2" />
    <text x="50%" y="88%" dominant-baseline="middle" text-anchor="middle" font-size="20" font-weight="bold" fill="black">Eight of Swords</text>

  </g></g></svg>